<?xml version="1.0" encoding="UTF-8"?>
<!DOCTYPE svg PUBLIC "-//W3C//DTD SVG 1.1//EN" "http://www.w3.org/Graphics/SVG/1.1/DTD/svg11.dtd">
<!-- Creator: CorelDRAW 2021 (64-Bit) -->
<svg xmlns="http://www.w3.org/2000/svg" xml:space="preserve" width="353px" height="43px" version="1.1" style="shape-rendering:geometricPrecision; text-rendering:geometricPrecision; image-rendering:optimizeQuality; fill-rule:evenodd; clip-rule:evenodd"
viewBox="0 0 57.181 6.937"
 xmlns:xlink="http://www.w3.org/1999/xlink"
 xmlns:xodm="http://www.corel.com/coreldraw/odm/2003">
 <defs>
  <style type="text/css">
   <![CDATA[
    .fil1 {fill:black;fill-rule:nonzero}
    .fil0 {fill:#39D1A1;fill-rule:nonzero}
   ]]>
  </style>
 </defs>
 <g id="Layer_x0020_1">
  <metadata id="CorelCorpID_0Corel-Layer"/>
  <path class="fil0" d="M2.903 0.115c0.594,0 1.11,0.099 1.548,0.297 0.437,0.198 0.774,0.479 1.01,0.843 0.237,0.364 0.355,0.795 0.355,1.294 0,0.491 -0.118,0.921 -0.355,1.288 -0.236,0.368 -0.573,0.649 -1.01,0.843 -0.438,0.195 -0.954,0.293 -1.548,0.293l-1.351 0 0 1.849 -1.552 0 0 -6.707 2.903 0zm-0.086 3.593c0.466,0 0.821,-0.101 1.063,-0.302 0.243,-0.201 0.365,-0.487 0.365,-0.857 0,-0.377 -0.122,-0.666 -0.365,-0.868 -0.242,-0.201 -0.597,-0.301 -1.063,-0.301l-1.265 0 0 2.328 1.265 0z"/>
  <polygon id="_1" class="fil0" points="6.937,0.115 8.479,0.115 8.479,4.484 11.68,0.115 13.136,0.115 13.136,6.822 11.603,6.822 11.603,2.462 8.403,6.822 6.937,6.822 "/>
  <path id="_2" class="fil0" d="M17.974 6.937c-0.683,0 -1.301,-0.149 -1.853,-0.446 -0.553,-0.297 -0.987,-0.709 -1.304,-1.236 -0.316,-0.527 -0.474,-1.122 -0.474,-1.787 0,-0.664 0.158,-1.26 0.474,-1.787 0.317,-0.526 0.751,-0.938 1.304,-1.235 0.552,-0.298 1.173,-0.446 1.863,-0.446 0.581,0 1.107,0.102 1.576,0.307 0.47,0.204 0.864,0.498 1.183,0.881l-0.996 0.92c-0.454,-0.524 -1.016,-0.786 -1.686,-0.786 -0.415,0 -0.786,0.091 -1.112,0.273 -0.325,0.182 -0.579,0.436 -0.761,0.762 -0.182,0.326 -0.273,0.696 -0.273,1.111 0,0.416 0.091,0.786 0.273,1.112 0.182,0.326 0.436,0.58 0.761,0.762 0.326,0.182 0.697,0.273 1.112,0.273 0.67,0 1.232,-0.265 1.686,-0.796l0.996 0.92c-0.319,0.39 -0.715,0.687 -1.188,0.891 -0.472,0.205 -0.999,0.307 -1.581,0.307z"/>
  <polygon id="_3" class="fil0" points="24.356,4.12 23.283,4.12 23.283,6.822 21.74,6.822 21.74,0.115 23.283,0.115 23.283,2.826 24.394,2.826 26.157,0.115 27.795,0.115 25.601,3.353 27.862,6.822 26.099,6.822 "/>
  <path id="_4" class="fil1" d="M33.343 5.385l-3.114 0 -0.594 1.437 -1.591 0 2.99 -6.707 1.533 0 2.999 6.707 -1.629 0 -0.594 -1.437zm-0.489 -1.179l-1.063 -2.568 -1.064 2.568 2.127 0z"/>
  <path id="_5" class="fil1" d="M42.493 0.115l0 6.707 -1.533 0 0 -5.442 -2.3 0 -0.047 1.399c-0.032,0.951 -0.109,1.723 -0.23,2.313 -0.122,0.591 -0.325,1.045 -0.609,1.361 -0.284,0.316 -0.682,0.474 -1.193,0.474 -0.21,0 -0.466,-0.035 -0.766,-0.105l0.096 -1.313c0.083,0.026 0.175,0.039 0.277,0.039 0.371,0 0.63,-0.219 0.777,-0.657 0.147,-0.437 0.239,-1.122 0.277,-2.055l0.096 -2.721 5.155 0z"/>
  <path id="_6" class="fil1" d="M47.418 2.319c0.817,0 1.445,0.182 1.882,0.546 0.438,0.364 0.657,0.904 0.657,1.619 0,0.76 -0.241,1.34 -0.724,1.739 -0.482,0.399 -1.161,0.599 -2.036,0.599l-3.027 0 0 -6.707 1.542 0 0 2.204 1.706 0zm-0.307 3.353c0.403,0 0.717,-0.099 0.944,-0.297 0.227,-0.198 0.34,-0.485 0.34,-0.862 0,-0.696 -0.428,-1.045 -1.284,-1.045l-1.399 0 0 2.204 1.399 0z"/>
  <polygon id="_7" class="fil1" points="53.674,4.12 52.601,4.12 52.601,6.822 51.059,6.822 51.059,0.115 52.601,0.115 52.601,2.826 53.713,2.826 55.476,0.115 57.114,0.115 54.92,3.353 57.181,6.822 55.418,6.822 "/>
 </g>
</svg>
