<?xml version="1.0" encoding="UTF-8"?>
<!DOCTYPE svg PUBLIC "-//W3C//DTD SVG 1.1//EN" "http://www.w3.org/Graphics/SVG/1.1/DTD/svg11.dtd">
<!-- Creator: CorelDRAW 2021 (64-Bit) -->
<svg xmlns="http://www.w3.org/2000/svg" xml:space="preserve" width="36px" height="41px" version="1.1" style="shape-rendering:geometricPrecision; text-rendering:geometricPrecision; image-rendering:optimizeQuality; fill-rule:evenodd; clip-rule:evenodd"
viewBox="0 0 0.587 0.677"
 xmlns:xlink="http://www.w3.org/1999/xlink"
 xmlns:xodm="http://www.corel.com/coreldraw/odm/2003">
 <defs>
  <style type="text/css">
   <![CDATA[
    .fil0 {fill:#39D1A1;fill-rule:nonzero}
   ]]>
  </style>
 </defs>
 <g id="Layer_x0020_1">
  <metadata id="CorelCorpID_0Corel-Layer"/>
  <path class="fil0" d="M0.293 0c0.06,0 0.112,0.01 0.156,0.03 0.044,0.02 0.078,0.048 0.102,0.085 0.024,0.037 0.036,0.08 0.036,0.13 0,0.05 -0.012,0.093 -0.036,0.13 -0.024,0.038 -0.058,0.066 -0.102,0.086 -0.044,0.019 -0.096,0.029 -0.156,0.029l-0.136 0 0 0.187 -0.157 0 0 -0.677 0.293 0zm-0.009 0.362c0.047,0 0.083,-0.01 0.107,-0.03 0.025,-0.02 0.037,-0.049 0.037,-0.087 0,-0.038 -0.012,-0.067 -0.037,-0.087 -0.024,-0.02 -0.06,-0.03 -0.107,-0.03l-0.127 0 0 0.234 0.127 0z"/>
 </g>
</svg>
